<?xml version="1.0" standalone="no"?>
<!DOCTYPE svg PUBLIC "-//W3C//DTD SVG 20010904//EN"
 "http://www.w3.org/TR/2001/REC-SVG-20010904/DTD/svg10.dtd">
<svg version="1.0" xmlns="http://www.w3.org/2000/svg"
 width="1000.000000pt" height="1000.000000pt" viewBox="0 0 1000.000000 1000.000000"
 preserveAspectRatio="xMidYMid meet">

<g transform="translate(0.000000,1000.000000) scale(0.100000,-0.100000)"
fill="#000000" stroke="none">
<path d="M3140 9994 c-525 -18 -999 -69 -1317 -140 -1155 -258 -1628 -874
-1772 -2304 -45 -441 -46 -509 -46 -2550 0 -2041 1 -2109 46 -2550 165 -1638
761 -2234 2399 -2399 441 -45 509 -46 2550 -46 2041 0 2109 1 2550 46 1638
165 2234 761 2399 2399 45 441 46 509 46 2550 0 2041 -1 2109 -46 2550 -165
1638 -763 2236 -2401 2399 -432 43 -455 44 -2423 46 -1045 1 -1938 0 -1985 -1z
m2318 -1230 c1253 -128 2362 -897 2932 -2034 426 -850 525 -1862 269 -2760
-75 -265 -145 -445 -269 -689 -516 -1022 -1482 -1755 -2600 -1975 -268 -53
-370 -61 -740 -61 -367 0 -464 7 -672 51 -282 59 -513 164 -830 376 -82 54
-127 78 -147 78 -24 0 -49 -17 -113 -76 -204 -186 -491 -338 -786 -415 -152
-40 -359 -51 -462 -25 -134 34 -211 93 -258 194 -23 50 -26 77 -38 267 -22
355 -57 569 -159 965 -29 113 -84 329 -123 480 -190 735 -255 1201 -255 1835
-1 323 12 478 58 731 280 1515 1475 2701 3029 3003 391 76 777 95 1164 55z"/>
<path d="M4752 6905 c-760 -116 -1332 -675 -1531 -1497 -66 -273 -86 -488 -78
-861 10 -517 96 -969 234 -1239 52 -101 98 -148 146 -148 72 0 234 102 406
254 56 50 81 66 104 66 17 0 66 -21 117 -51 396 -228 803 -296 1245 -208 357
72 726 276 985 545 318 331 496 737 525 1199 12 191 -24 452 -92 655 -213 640
-760 1125 -1428 1266 -101 22 -153 26 -330 29 -148 3 -237 0 -303 -10z"/>
</g>
</svg>
